<?xml version="1.0" standalone="no"?>
<!DOCTYPE svg PUBLIC "-//W3C//DTD SVG 20010904//EN"
 "http://www.w3.org/TR/2001/REC-SVG-20010904/DTD/svg10.dtd">
<svg version="1.0" xmlns="http://www.w3.org/2000/svg"
 width="256.000000pt" height="256.000000pt" viewBox="0 0 256.000000 256.000000"
 preserveAspectRatio="xMidYMid meet">

<g transform="translate(0.000000,256.000000) scale(0.100000,-0.100000)"
fill="#000000" stroke="none">
<path d="M2259 2227 c-200 -175 -521 -475 -1049 -982 -337 -323 -446 -425
-424 -395 6 8 40 51 76 95 197 242 440 591 567 814 92 161 133 267 139 353 4
62 2 69 -23 94 -26 26 -30 27 -106 21 -325 -25 -768 -367 -949 -732 -79 -159
-102 -304 -58 -360 20 -25 25 -27 87 -23 109 6 231 77 409 237 75 67 172 175
172 192 0 21 -23 2 -146 -119 -180 -178 -321 -274 -428 -288 -36 -5 -47 -3
-65 15 -27 27 -27 64 2 144 77 211 332 531 572 716 151 117 319 191 429 191
67 0 80 -14 73 -76 -15 -132 -246 -480 -752 -1129 -288 -369 -345 -446 -345
-466 0 -22 21 -24 53 -7 12 6 164 149 337 317 173 168 394 380 490 471 96 91
271 257 390 370 239 227 520 491 564 530 l29 25 -18 -31 c-10 -17 -83 -112
-163 -210 -561 -690 -878 -1099 -1024 -1324 -152 -233 -234 -397 -245 -490 -5
-42 -3 -51 13 -57 19 -7 125 45 132 66 6 18 -30 13 -63 -9 -55 -37 -58 -23
-15 68 69 146 287 445 710 973 416 519 644 827 714 967 27 53 31 102 10 109
-6 2 -49 -29 -95 -70z"/>
</g>
</svg>
